<?xml version="1.0" encoding="UTF-8"?>
<svg id="_Слой_1" data-name="Слой_1" xmlns="http://www.w3.org/2000/svg" version="1.1" viewBox="0 0 1080 857.5">
  <!-- Generator: Adobe Illustrator 29.1.0, SVG Export Plug-In . SVG Version: 2.1.0 Build 142)  -->
  <defs>
    <style>
      .st0 {
        fill: #1d1d1b;
      }

      .st1 {
        fill: #fff;
      }
    </style>
  </defs>
  
  <g>
    <path class="st1" d="M154.41,528.28H63.5v1.59s11.95,10.19,11.95,23.5l.18,178.78c0,13.33-12.13,26.52-12.13,26.52v1.6h86.2c89.72,0,126.66-61.76,126.66-116.72,0-85.18-53.8-115.27-121.94-115.27ZM238.06,648.72c.01,59.68-30.41,108.05-90.09,108.05h-34.12s-.18-225.02-.18-225.02h34.3c59.66-.01,90.09,48.36,90.09,108.02v8.95Z"/>
    <path class="st1" d="M497.25,560.18c-23.53-23.53-51.58-34.61-83.36-32.92-31.82,1.58-60.16,14.61-84.25,38.71-48.25,48.27-48.55,118.03-5.04,161.52,21.88,21.87,49.45,32.55,81.9,31.73,32.63-.76,61.37-13.33,85.37-37.32,46.02-48.45,55.19-111.44,5.38-161.73ZM328.39,726.3c-29.41-29.4-15.77-88.85,30.32-135.02,44.38-44.39,104.37-60.61,135.02-29.97,27.05,27.04,18.2,86.07-30.34,134.63-45.9,45.97-105.52,59.83-135,30.36Z"/>
    <path class="st1" d="M661.74,743.74l-73.67-215.42h-52.96v1.6s7.65,9.21,11.94,19.51l.18,182.72c0,13.33-12.13,26.52-12.13,26.52v1.6h29.36v-1.6s-11.95-13.67-11.95-26.99l-.18-174.18c17.07,50.18,68.06,202.71,68.06,202.71h40.81l77.36-216.95.17,188.87c0,13.33-12.13,26.52-12.13,26.52v1.6h62.31v-1.6s-11.95-13.67-11.95-26.99l-.18-178.78c.01-13.32,12.14-23.02,12.14-23.02v-1.6l-50.36.05-76.81,215.42Z"/>
    <path class="st1" d="M1001.21,737.17c-6.31-15.84-82.15-208.92-82.15-208.92h-28.67s-72.64,195.12-78.48,209.8c-4.59,11.52-15.1,20.51-15.1,20.51v1.6h24.9v-1.6s-9.97-10.44-2.87-27.65c1.25-3.05,7.1-18.53,14.89-39.29h108.64c7.69,20.31,13.45,35.4,14.69,38.41,7.11,17.22-2.69,28.54-2.69,28.54v1.6s62.1,0,62.1,0v-1.6s-10.67-9.87-15.27-21.39ZM835.36,687.27c20.47-54.62,52.41-140.49,52.41-140.49,0,0,32.39,86.16,52.96,140.5h-105.38Z"/>
    <path class="st1" d="M594.29,254.76v12.71c.02,84.77-43.2,153.48-127.96,153.48h-17.57c16.11-6.55,30.73-18.98,31.67-33.46.03,0,.05,0,.08-.01v-1.59c0-.37.06-.73.06-1.11v-204.72c.59-19.53,14.79-35.68,33.45-39.12v-.04h-18.95c-21.82,0-53.25,16.97-54.65,38.43-.03,0-.05,0-.08.01v1.59c0,.37-.06.73-.06,1.11v204.72c-.59,19.53-14.79,35.68-33.45,39.12v.04h18.95c1.1,0,2.22-.05,3.37-.14v.14h39.63c127.44,0,179.91-87.73,179.91-165.8,0-120.99-76.43-162.9-173.22-162.9h-35.4v1.36l26.26-.02c84.75,0,127.96,71.44,127.96,156.19Z"/>
    <path class="st1" d="M698.39,255.09v12.71c.02,75.23-34.05,142.83-100.96,155.96v1.32c109.64-10.55,155.36-91.77,155.36-164.62,0-113.45-67.19-158.1-155.36-163.23v1.32c66.89,13.13,100.96,81.34,100.96,156.55Z"/>
    <path class="st1" d="M400.81,387.49s.05,0,.08-.01v-1.59c0-.37.06-.73.06-1.11v-248.4c.59-19.53,14.79-35.68,33.45-39.12v-.04h-18.95c-21.82,0-53.25,16.97-54.65,38.43-.03,0-.05,0-.08.01v1.59c0,.37-.06.73-.06,1.11v248.4c-.59,19.53-14.79,35.68-33.45,39.12v.04h18.95c21.82,0,53.25-16.97,54.65-38.43Z"/>
  </g>
</svg>